<mxfile host="app.diagrams.net" modified="2021-12-12T05:16:46.155Z" agent="5.0 (Macintosh; Intel Mac OS X 10_15_7) AppleWebKit/537.36 (KHTML, like Gecko) Chrome/95.0.4638.69 Safari/537.36" etag="4P7aM6My2Pt3GdC5GKIZ" version="14.7.7" type="github">
  <diagram id="PV7kKnhCUMZ3yr8tJaL5" name="Page-1">
    <mxGraphModel dx="2066" dy="1087" grid="1" gridSize="10" guides="1" tooltips="1" connect="1" arrows="1" fold="1" page="1" pageScale="1" pageWidth="2339" pageHeight="3300" math="0" shadow="0">
      <root>
        <mxCell id="0" />
        <mxCell id="1" parent="0" />
        <mxCell id="nq8-maMK1M8NPsBWsvAa-23" style="edgeStyle=orthogonalEdgeStyle;rounded=0;orthogonalLoop=1;jettySize=auto;html=1;entryX=0.5;entryY=0;entryDx=0;entryDy=0;fontSize=16;" edge="1" parent="1" source="nq8-maMK1M8NPsBWsvAa-8" target="nq8-maMK1M8NPsBWsvAa-9">
          <mxGeometry relative="1" as="geometry" />
        </mxCell>
        <mxCell id="nq8-maMK1M8NPsBWsvAa-8" value="用户请求modifylogset接口" style="rounded=0;whiteSpace=wrap;html=1;shadow=0;glass=0;sketch=0;fontSize=16;fillColor=#cce5ff;strokeColor=#36393d;" vertex="1" parent="1">
          <mxGeometry x="750" y="140" width="170" height="60" as="geometry" />
        </mxCell>
        <mxCell id="nq8-maMK1M8NPsBWsvAa-24" style="edgeStyle=orthogonalEdgeStyle;rounded=0;orthogonalLoop=1;jettySize=auto;html=1;entryX=0.5;entryY=0;entryDx=0;entryDy=0;fontSize=16;" edge="1" parent="1" source="nq8-maMK1M8NPsBWsvAa-9" target="nq8-maMK1M8NPsBWsvAa-11">
          <mxGeometry relative="1" as="geometry" />
        </mxCell>
        <mxCell id="nq8-maMK1M8NPsBWsvAa-9" value="访问云api" style="rounded=0;whiteSpace=wrap;html=1;shadow=0;glass=0;sketch=0;fillColor=#cce5ff;fontSize=16;strokeColor=#36393d;" vertex="1" parent="1">
          <mxGeometry x="750" y="250" width="170" height="60" as="geometry" />
        </mxCell>
        <mxCell id="nq8-maMK1M8NPsBWsvAa-13" style="edgeStyle=orthogonalEdgeStyle;rounded=0;orthogonalLoop=1;jettySize=auto;html=1;fontSize=16;" edge="1" parent="1" source="nq8-maMK1M8NPsBWsvAa-11" target="nq8-maMK1M8NPsBWsvAa-12">
          <mxGeometry relative="1" as="geometry" />
        </mxCell>
        <mxCell id="nq8-maMK1M8NPsBWsvAa-19" style="edgeStyle=orthogonalEdgeStyle;rounded=0;orthogonalLoop=1;jettySize=auto;html=1;fontSize=16;" edge="1" parent="1" source="nq8-maMK1M8NPsBWsvAa-11" target="nq8-maMK1M8NPsBWsvAa-17">
          <mxGeometry relative="1" as="geometry" />
        </mxCell>
        <mxCell id="nq8-maMK1M8NPsBWsvAa-11" value="云api是否鉴权" style="rhombus;whiteSpace=wrap;html=1;shadow=0;glass=0;sketch=0;fontSize=16;fillColor=#ffff88;strokeColor=#36393d;" vertex="1" parent="1">
          <mxGeometry x="760" y="360" width="150" height="110" as="geometry" />
        </mxCell>
        <mxCell id="nq8-maMK1M8NPsBWsvAa-36" style="edgeStyle=orthogonalEdgeStyle;rounded=0;orthogonalLoop=1;jettySize=auto;html=1;fontSize=16;" edge="1" parent="1" source="nq8-maMK1M8NPsBWsvAa-12" target="nq8-maMK1M8NPsBWsvAa-29">
          <mxGeometry relative="1" as="geometry" />
        </mxCell>
        <mxCell id="nq8-maMK1M8NPsBWsvAa-12" value="访问cls接入层" style="rounded=1;whiteSpace=wrap;html=1;shadow=0;glass=0;sketch=0;fontSize=16;fillColor=#cce5ff;strokeColor=#36393d;" vertex="1" parent="1">
          <mxGeometry x="565" y="500" width="120" height="60" as="geometry" />
        </mxCell>
        <mxCell id="nq8-maMK1M8NPsBWsvAa-14" value="不鉴权" style="text;html=1;align=center;verticalAlign=middle;resizable=0;points=[];autosize=1;strokeColor=none;fontSize=16;" vertex="1" parent="1">
          <mxGeometry x="620" y="390" width="60" height="20" as="geometry" />
        </mxCell>
        <mxCell id="nq8-maMK1M8NPsBWsvAa-48" style="edgeStyle=orthogonalEdgeStyle;rounded=0;orthogonalLoop=1;jettySize=auto;html=1;entryX=0.5;entryY=0;entryDx=0;entryDy=0;fontSize=16;" edge="1" parent="1" source="nq8-maMK1M8NPsBWsvAa-15" target="nq8-maMK1M8NPsBWsvAa-26">
          <mxGeometry relative="1" as="geometry" />
        </mxCell>
        <mxCell id="nq8-maMK1M8NPsBWsvAa-15" value="调用cam的新接口sigAndAuth" style="rounded=1;whiteSpace=wrap;html=1;shadow=0;glass=0;sketch=0;fontSize=16;fillColor=#cce5ff;strokeColor=#36393d;" vertex="1" parent="1">
          <mxGeometry x="385" y="840" width="120" height="60" as="geometry" />
        </mxCell>
        <mxCell id="nq8-maMK1M8NPsBWsvAa-22" style="edgeStyle=orthogonalEdgeStyle;rounded=0;orthogonalLoop=1;jettySize=auto;html=1;entryX=0.407;entryY=0;entryDx=0;entryDy=0;entryPerimeter=0;fontSize=16;" edge="1" parent="1" source="nq8-maMK1M8NPsBWsvAa-17" target="nq8-maMK1M8NPsBWsvAa-18">
          <mxGeometry relative="1" as="geometry" />
        </mxCell>
        <mxCell id="nq8-maMK1M8NPsBWsvAa-17" value="访问cls接入层" style="rounded=1;whiteSpace=wrap;html=1;shadow=0;glass=0;sketch=0;fontSize=16;fillColor=#cce5ff;strokeColor=#36393d;" vertex="1" parent="1">
          <mxGeometry x="1005" y="500" width="120" height="60" as="geometry" />
        </mxCell>
        <mxCell id="nq8-maMK1M8NPsBWsvAa-18" value="cgi内部创建好logset资源后，调用标签的老接口（不支持批量关联标签）， 将资源和标签逐一关联上" style="rounded=1;whiteSpace=wrap;html=1;shadow=0;glass=0;sketch=0;fontSize=16;fillColor=#cce5ff;strokeColor=#36393d;" vertex="1" parent="1">
          <mxGeometry x="955" y="730" width="270" height="100" as="geometry" />
        </mxCell>
        <mxCell id="nq8-maMK1M8NPsBWsvAa-21" style="edgeStyle=orthogonalEdgeStyle;rounded=0;orthogonalLoop=1;jettySize=auto;html=1;exitX=0.5;exitY=1;exitDx=0;exitDy=0;fontSize=16;" edge="1" parent="1" source="nq8-maMK1M8NPsBWsvAa-17" target="nq8-maMK1M8NPsBWsvAa-17">
          <mxGeometry relative="1" as="geometry" />
        </mxCell>
        <mxCell id="nq8-maMK1M8NPsBWsvAa-42" style="edgeStyle=orthogonalEdgeStyle;rounded=0;orthogonalLoop=1;jettySize=auto;html=1;entryX=0.5;entryY=0;entryDx=0;entryDy=0;fontSize=16;fillColor=#cce5ff;strokeColor=#36393d;" edge="1" parent="1" source="nq8-maMK1M8NPsBWsvAa-26" target="nq8-maMK1M8NPsBWsvAa-43">
          <mxGeometry relative="1" as="geometry">
            <mxPoint x="445" y="1100" as="targetPoint" />
            <Array as="points">
              <mxPoint x="445" y="1085" />
              <mxPoint x="300" y="1085" />
            </Array>
          </mxGeometry>
        </mxCell>
        <mxCell id="nq8-maMK1M8NPsBWsvAa-45" style="edgeStyle=orthogonalEdgeStyle;rounded=0;orthogonalLoop=1;jettySize=auto;html=1;entryX=0.5;entryY=0;entryDx=0;entryDy=0;fontSize=16;fillColor=#cce5ff;strokeColor=#36393d;" edge="1" parent="1" source="nq8-maMK1M8NPsBWsvAa-26" target="nq8-maMK1M8NPsBWsvAa-44">
          <mxGeometry relative="1" as="geometry" />
        </mxCell>
        <mxCell id="nq8-maMK1M8NPsBWsvAa-26" value="1: 查找目前资源所关联的标签&lt;br&gt;2: 和用户请求传入的标签做diff&amp;nbsp;" style="rounded=1;whiteSpace=wrap;html=1;shadow=0;glass=0;sketch=0;fontSize=16;fillColor=#cce5ff;strokeColor=#36393d;" vertex="1" parent="1">
          <mxGeometry x="330" y="950" width="230" height="90" as="geometry" />
        </mxCell>
        <mxCell id="nq8-maMK1M8NPsBWsvAa-27" value="鉴权" style="text;html=1;align=center;verticalAlign=middle;resizable=0;points=[];autosize=1;strokeColor=none;fontSize=16;" vertex="1" parent="1">
          <mxGeometry x="970" y="390" width="50" height="20" as="geometry" />
        </mxCell>
        <mxCell id="nq8-maMK1M8NPsBWsvAa-37" style="edgeStyle=orthogonalEdgeStyle;rounded=0;orthogonalLoop=1;jettySize=auto;html=1;entryX=0.5;entryY=0;entryDx=0;entryDy=0;fontSize=16;" edge="1" parent="1" source="nq8-maMK1M8NPsBWsvAa-29" target="nq8-maMK1M8NPsBWsvAa-30">
          <mxGeometry relative="1" as="geometry" />
        </mxCell>
        <mxCell id="nq8-maMK1M8NPsBWsvAa-29" value="cgi从camcontext获取onlysign字段" style="rounded=1;whiteSpace=wrap;html=1;shadow=0;glass=0;sketch=0;fontSize=16;fillColor=#cce5ff;strokeColor=#36393d;" vertex="1" parent="1">
          <mxGeometry x="565" y="620" width="120" height="60" as="geometry" />
        </mxCell>
        <mxCell id="nq8-maMK1M8NPsBWsvAa-32" style="edgeStyle=orthogonalEdgeStyle;rounded=0;orthogonalLoop=1;jettySize=auto;html=1;entryX=0.5;entryY=0;entryDx=0;entryDy=0;fontSize=16;" edge="1" parent="1" source="nq8-maMK1M8NPsBWsvAa-30" target="nq8-maMK1M8NPsBWsvAa-15">
          <mxGeometry relative="1" as="geometry" />
        </mxCell>
        <mxCell id="nq8-maMK1M8NPsBWsvAa-34" style="edgeStyle=orthogonalEdgeStyle;rounded=0;orthogonalLoop=1;jettySize=auto;html=1;fontSize=16;" edge="1" parent="1" source="nq8-maMK1M8NPsBWsvAa-30" target="nq8-maMK1M8NPsBWsvAa-18">
          <mxGeometry relative="1" as="geometry" />
        </mxCell>
        <mxCell id="nq8-maMK1M8NPsBWsvAa-30" value="是否仅签名" style="rhombus;whiteSpace=wrap;html=1;shadow=0;glass=0;sketch=0;fontSize=16;fillColor=#ffff88;strokeColor=#36393d;" vertex="1" parent="1">
          <mxGeometry x="560" y="740" width="130" height="80" as="geometry" />
        </mxCell>
        <mxCell id="nq8-maMK1M8NPsBWsvAa-33" value="是" style="text;html=1;align=center;verticalAlign=middle;resizable=0;points=[];autosize=1;strokeColor=none;fontSize=16;" vertex="1" parent="1">
          <mxGeometry x="465" y="750" width="30" height="20" as="geometry" />
        </mxCell>
        <mxCell id="nq8-maMK1M8NPsBWsvAa-35" value="否" style="text;html=1;align=center;verticalAlign=middle;resizable=0;points=[];autosize=1;strokeColor=none;fontSize=16;" vertex="1" parent="1">
          <mxGeometry x="710" y="750" width="30" height="20" as="geometry" />
        </mxCell>
        <mxCell id="nq8-maMK1M8NPsBWsvAa-43" value="调用标签的tagResources的接口" style="rounded=1;whiteSpace=wrap;html=1;shadow=0;glass=0;sketch=0;fontSize=16;fillColor=#cce5ff;strokeColor=#36393d;" vertex="1" parent="1">
          <mxGeometry x="240" y="1130" width="120" height="60" as="geometry" />
        </mxCell>
        <mxCell id="nq8-maMK1M8NPsBWsvAa-44" value="调用标签的UntagResources接口" style="rounded=1;whiteSpace=wrap;html=1;shadow=0;glass=0;sketch=0;fontSize=16;fillColor=#cce5ff;strokeColor=#36393d;" vertex="1" parent="1">
          <mxGeometry x="530" y="1130" width="120" height="60" as="geometry" />
        </mxCell>
        <mxCell id="nq8-maMK1M8NPsBWsvAa-46" value="add &amp;amp;&amp;amp; update" style="text;html=1;align=center;verticalAlign=middle;resizable=0;points=[];autosize=1;strokeColor=#36393d;fontSize=16;fillColor=#cce5ff;" vertex="1" parent="1">
          <mxGeometry x="270" y="1060" width="120" height="20" as="geometry" />
        </mxCell>
        <mxCell id="nq8-maMK1M8NPsBWsvAa-47" value="del" style="text;html=1;align=center;verticalAlign=middle;resizable=0;points=[];autosize=1;strokeColor=#36393d;fontSize=16;fillColor=#cce5ff;" vertex="1" parent="1">
          <mxGeometry x="510" y="1060" width="40" height="20" as="geometry" />
        </mxCell>
        <mxCell id="nq8-maMK1M8NPsBWsvAa-50" value="老逻辑：" style="text;align=left;verticalAlign=top;spacingLeft=4;spacingRight=4;overflow=hidden;rotatable=0;points=[[0,0.5],[1,0.5]];portConstraint=eastwest;shadow=0;glass=0;sketch=0;fontSize=16;strokeColor=#7EA6E0;fontColor=#007FFF;" vertex="1" parent="1">
          <mxGeometry x="910" y="360" width="390" height="500" as="geometry" />
        </mxCell>
      </root>
    </mxGraphModel>
  </diagram>
</mxfile>
